<?xml version="1.0" standalone="no"?>
<!DOCTYPE svg PUBLIC "-//W3C//DTD SVG 20010904//EN"
 "http://www.w3.org/TR/2001/REC-SVG-20010904/DTD/svg10.dtd">
<svg version="1.0" xmlns="http://www.w3.org/2000/svg"
 width="820.000000pt" height="742.000000pt" viewBox="0 0 820.000000 742.000000"
 preserveAspectRatio="xMidYMid meet">

<g transform="translate(0.000000,742.000000) scale(0.100000,-0.100000)"
fill="#ffffff" stroke="none">
<path d="M3924 6995 c-157 -34 -304 -116 -424 -235 -168 -169 -250 -365 -250
-600 0 -169 46 -327 132 -460 51 -80 173 -203 250 -253 l58 -38 -418 -834
c-229 -459 -419 -835 -422 -835 -5 1 -1287 914 -1298 924 -2 3 18 31 46 63
351 407 272 1002 -171 1291 -347 227 -796 173 -1083 -129 -111 -118 -178 -240
-215 -396 -28 -118 -23 -321 11 -428 85 -266 291 -477 553 -565 l82 -28 121
-238 c352 -698 628 -1521 783 -2339 93 -488 141 -998 141 -1507 l0 -218 2284
0 2283 0 6 382 c7 450 29 713 93 1113 142 887 442 1816 845 2615 l98 196 51
13 c82 21 219 93 301 159 229 181 351 486 310 770 -59 403 -389 710 -794 738
-384 27 -747 -222 -868 -596 -38 -115 -50 -286 -29 -404 27 -157 102 -310 205
-424 32 -35 56 -64 54 -66 -26 -20 -1301 -926 -1305 -926 -5 0 -834 1657 -834
1667 1 5 26 24 57 43 73 46 178 149 232 229 189 278 198 637 24 925 -47 76
-160 196 -240 252 -82 59 -193 110 -295 134 -98 23 -278 26 -374 5z m311 -582
c50 -27 96 -75 126 -133 18 -35 23 -61 23 -120 0 -89 -16 -131 -73 -193 -133
-144 -373 -113 -461 60 -21 40 -25 62 -25 133 0 75 3 91 29 138 31 56 71 91
138 123 58 27 184 22 243 -8z m-3152 -852 c171 -76 216 -307 89 -453 -17 -19
-59 -47 -93 -63 -54 -24 -71 -27 -133 -23 -83 6 -134 29 -187 85 -52 54 -71
98 -77 174 -10 145 74 264 213 300 44 12 141 2 188 -20z m6279 1 c57 -25 115
-82 142 -141 31 -69 29 -179 -7 -247 -106 -207 -407 -203 -512 6 -24 46 -31
156 -15 206 54 165 234 246 392 176z m-2365 -2380 c31 -16 412 -105 425 -99 7
3 261 181 563 395 303 215 551 389 553 387 2 -2 -16 -47 -39 -101 -387 -909
-623 -1925 -667 -2869 l-7 -150 -1722 -3 -1723 -2 0 38 c0 76 -21 363 -41 552
-84 815 -287 1600 -623 2408 -53 130 -54 133 -28 116 15 -9 140 -97 277 -194
138 -97 376 -266 529 -374 154 -109 286 -200 293 -203 7 -3 108 18 224 47
l210 53 441 881 440 881 439 -877 c245 -491 446 -881 456 -886z"/>
</g>
</svg>
